<?xml version="1.0" encoding="UTF-8"?>
<svg id="a" data-name="Calque 1" xmlns="http://www.w3.org/2000/svg" viewBox="0 0 1051.56 195.24">
  <polyline points="453.64 0 453.64 195.24 456.88 195.24 456.88 0" style="fill: #f71047;"/>
  <polygon points="482.51 176.21 482.51 19.03 545.38 19.03 545.38 49.66 514.13 49.66 514.13 74.67 543.78 74.67 543.78 104.94 514.13 104.94 514.13 176.21 482.51 176.21"/>
  <path d="M549.67,176.21l15.18-157.18h53.31l14.91,157.18h-29.74l-2.23-25.36h-18.93l-1.97,25.36h-30.54Zm34.74-50.46h14.29l-6.88-79.93h-1.43l-5.98,79.93Z"/>
  <path d="M679.34,177.64c-11.37,0-20.53-3.54-27.46-10.63-6.94-7.08-10.4-17-10.4-29.74V64.76c0-15.24,3.02-26.91,9.06-35.01,6.04-8.1,15.88-12.15,29.52-12.15,7.44,0,14.07,1.37,19.87,4.11,5.8,2.74,10.37,6.83,13.71,12.28,3.33,5.45,5,12.31,5,20.59v27.15h-31.26v-23.22c0-4.7-.6-7.87-1.79-9.51-1.19-1.64-3.04-2.46-5.54-2.46-2.92,0-4.88,1.06-5.89,3.17-1.01,2.11-1.52,4.93-1.52,8.44v78.68c0,4.35,.64,7.41,1.92,9.2,1.28,1.79,3.11,2.68,5.49,2.68,2.68,0,4.57-1.1,5.67-3.31,1.1-2.2,1.65-5.06,1.65-8.57v-28.31h31.61v29.74c0,13.81-3.48,23.83-10.45,30.05-6.97,6.22-16.7,9.33-29.2,9.33Z"/>
  <polygon points="742.93 176.21 742.93 49.22 724.26 49.22 724.26 19.03 793.03 19.03 793.03 49.22 774.36 49.22 774.36 176.21 742.93 176.21"/>
  <path d="M839.29,177.64c-12.56,0-22.16-3.8-28.8-11.39-6.64-7.59-9.96-18.56-9.96-32.91V58.68c0-13.45,3.29-23.67,9.87-30.63,6.58-6.97,16.21-10.45,28.89-10.45s22.31,3.48,28.89,10.45c6.58,6.97,9.87,17.18,9.87,30.63v74.66c0,14.35-3.32,25.32-9.96,32.91-6.64,7.59-16.24,11.39-28.8,11.39Zm.27-28.93c4.76,0,7.14-4.61,7.14-13.84V58.15c0-7.74-2.32-11.61-6.97-11.61-5.24,0-7.86,3.96-7.86,11.88v76.62c0,4.88,.59,8.38,1.79,10.49,1.19,2.11,3.16,3.17,5.89,3.17Z"/>
  <path d="M890.72,176.21V19.03h48.22c8.04,0,14.11,1.83,18.22,5.49,4.11,3.66,6.86,8.78,8.26,15.36,1.4,6.58,2.1,14.3,2.1,23.18s-1.09,15.42-3.26,20.54c-2.17,5.12-6.27,8.66-12.28,10.63,4.94,1.01,8.41,3.47,10.4,7.37,1.99,3.9,2.99,8.95,2.99,15.14v59.48h-30.99v-61.53c0-4.58-.94-7.43-2.81-8.53-1.87-1.1-4.9-1.65-9.06-1.65v71.71h-31.79Zm31.97-98.95h7.59c4.35,0,6.52-4.73,6.52-14.2,0-6.13-.48-10.15-1.43-12.06-.95-1.9-2.74-2.86-5.36-2.86h-7.32v29.11Z"/>
  <polygon points="996.91 176.21 996.91 124.5 971.81 19.03 1002.98 19.03 1011.73 72.26 1020.48 19.03 1051.56 19.03 1026.56 124.5 1026.56 176.21 996.91 176.21"/>
  <polygon points="18.67 176.21 18.67 49.22 0 49.22 0 19.03 68.76 19.03 68.76 49.22 50.1 49.22 50.1 176.21 18.67 176.21"/>
  <rect x="76.09" y="19.03" width="30.36" height="157.18"/>
  <path d="M155.57,177.64c-11.37,0-20.53-3.54-27.46-10.63-6.94-7.08-10.4-17-10.4-29.74V64.76c0-15.24,3.02-26.91,9.07-35.01,6.04-8.1,15.88-12.15,29.52-12.15,7.44,0,14.07,1.37,19.87,4.11,5.8,2.74,10.37,6.83,13.71,12.28,3.33,5.45,5,12.31,5,20.59v27.15h-31.26v-23.22c0-4.7-.6-7.87-1.79-9.51-1.19-1.64-3.04-2.46-5.54-2.46-2.92,0-4.88,1.06-5.89,3.17-1.01,2.11-1.52,4.93-1.52,8.44v78.68c0,4.35,.64,7.41,1.92,9.2,1.28,1.79,3.11,2.68,5.49,2.68,2.68,0,4.57-1.1,5.67-3.31,1.1-2.2,1.65-5.06,1.65-8.57v-28.31h31.61v29.74c0,13.81-3.48,23.83-10.45,30.05-6.97,6.22-16.7,9.33-29.2,9.33Z"/>
  <polygon points="292.03 176.21 292.03 19.03 354.9 19.03 354.9 49.4 324 49.4 324 80.03 353.65 80.03 353.65 109.59 324 109.59 324 145.58 356.95 145.58 356.95 176.21 292.03 176.21"/>
  <polygon points="380.79 176.21 380.79 49.22 362.13 49.22 362.13 19.03 430.9 19.03 430.9 49.22 412.23 49.22 412.23 176.21 380.79 176.21"/>
  <path d="M265.41,91.01l17.59-71.98h-31.61l-14.65,62.96V19.03h-10.03l-.08,6.23c0,.56-.47,1.01-1.03,1.01l-8.71-.11c-.56,0-1.01-.47-1.01-1.03l.08-6.09h-10.29V176.21h10.1l.08-6.33c0-.56,.47-1.01,1.03-1.01l8.83,.12c.56,0,1.01,.47,1.01,1.03l-.08,6.19h10.29V100.12l17.15,76.09h32.6l-21.25-85.2Zm-38.9,53.01c0,.56-.47,1.01-1.03,1.01l-8.35-.11c-.56,0-1.01-.47-1.01-1.03l.2-15.36c0-.56,.47-1.01,1.03-1.01l8.35,.11c.56,0,1.01,.47,1.01,1.03l-.2,15.36Zm0-41.95c0,.56-.47,1.01-1.03,1.01l-8.35-.11c-.56,0-1.01-.47-1.01-1.03l.2-15.37c0-.56,.47-1.01,1.03-1.01l8.35,.11c.56,0,1.01,.47,1.01,1.03l-.2,15.37Zm0-36.39c0,.56-.47,1.01-1.03,1.01l-8.35-.11c-.56,0-1.01-.47-1.01-1.03l.2-15.37c0-.56,.47-1.01,1.03-1.01l8.35,.11c.56,0,1.01,.47,1.01,1.03l-.2,15.36Z" style="fill: #f71047;"/>
</svg>