<?xml version="1.0" encoding="UTF-8"?>
<svg id="a" data-name="Calque 1" xmlns="http://www.w3.org/2000/svg" viewBox="0 0 990.87 364.7">
  <path d="M989.2,338.58c2.39-1.98,1.86-11.01-.94-12.56-4.63-2.57-5.02-6.31-.93-8.88,4.73-2.97,4.72-12.86-.02-15.89-3.62-2.32-3.95-6.44-.1-8.02,3.6-1.47,3.45-3.77,3.38-6.59-.06-2.78-.01-5.56-.01-8.34-.37,.21-.74,.42-1.11,.63-1.67-2-4.23-3.82-4.67-6.05-.26-1.34,2.84-3.29,4.32-5.06,.62-.74,1.34-1.7,1.38-2.58,.15-3.71,.07-7.42,.07-11.14-.33,.19-.66,.38-.99,.57-1.69-2-4.89-4.16-4.69-5.95,.26-2.37,3.02-4.47,4.78-6.68,.08-.1,.14-.2,.18-.32,.73-1.98,.72-4.39,.74-6.8,.02-2.91,.33-5.42-3.51-6.98-3.97-1.62-3.26-5.72,.62-8.31,1.34-.89,2.34-2.78,2.78-4.4,.47-1.73-.03-3.71,.13-5.56,.23-2.68-.27-4.42-3.15-5.78-4.24-2.01-4.03-6.37,.37-8.44,2.27-1.07,2.97-2.23,2.78-4.51-.16-1.85-.1-3.73-.01-5.58,.12-2.59-.07-4.41-3.18-5.72-4.19-1.76-3.69-6.1,.25-8.67,1.35-.88,2.43-2.77,2.8-4.39,.48-2.06,.47-4.4,0-6.47-.36-1.62-1.69-3.04-2.67-4.5-1.06-1.58-3.14-3.12-3.08-4.61,.06-1.52,2.23-2.93,3.39-4.45,.89-1.17,2.16-2.37,2.36-3.7,.37-2.42,.4-5.01-.05-7.41-.28-1.49-1.67-2.79-2.61-4.15-1.08-1.55-3.12-3.1-3.07-4.59,.06-1.51,2.21-2.91,3.35-4.43,.9-1.21,2.13-2.44,2.37-3.81,.4-2.26,.46-4.71,0-6.94-.33-1.63-1.66-3.08-2.65-4.55-1.06-1.57-3.17-3.11-3.1-4.59,.07-1.53,2.24-2.94,3.4-4.47,.9-1.18,2.08-2.38,2.36-3.74,.4-1.93-.01-4.02,.13-6.03,.19-2.8-.2-4.74-3.4-6-3.35-1.32-4.01-5.78-1.09-7.03,5.74-2.47,4.27-6.94,4.49-11.18,.15-2.83-.22-4.77-3.39-6.11-3.65-1.54-3.86-6.16-.34-7.65,3.79-1.6,3.94-4.04,3.75-7.26-.15-2.6-.03-5.23-.03-7.84-.38,.21-.75,.41-1.13,.62-1.68-1.99-4.22-3.81-4.69-6.05-.27-1.3,2.84-3.27,4.37-4.99,.56-.63,1.36-1.4,1.37-2.12,.1-7.07,.07-14.13,.06-21.49,0-.57-.46-1.03-1.03-1.03h-5.13c-35.43,0-70.85,0-106.28,0-83.45,0-166.9,0-250.35,0-100.39,0-200.78,.02-301.17-.04-3.66,0-6.06,.02-7.04,4.83-1.4,6.87-8.02,11.09-14.91,11.05-.19,0-.37-.04-.56-.04v1.36h1.03c.57,0,1.03,.46,1.03,1.03v9.84c0,.48-.33,.86-.78,.98-.08-.02-.15-.05-.23-.05h-6.03c-.06,0-.1,.02-.16,.03-.58-.17-1-.7-1-1.34v-9.09c0-.78,.63-1.4,1.4-1.4h.61c.44,0,.79-.35,.79-.79,0-.39-.29-.72-.68-.78-5.85-.9-10.52-4.86-12.53-10.88-.38-1.12-.7-2.26-1.04-3.41-.17-.6-.73-1.01-1.35-1.01H1.51C.74,.32,.11,.96,.11,1.73c0,6.28,.07,12.32-.04,18.35-.05,2.54,.19,4.26,3.19,5.18,1.46,.45,3.23,2.87,3.2,4.36-.04,1.52-2,3.12-3.35,4.44-.44,.42-1.09,.62-1.73,.8-.61,.17-1.04,.72-1.04,1.36v12.18c.33-.24,.67-.47,1-.71,1.77,1.89,4.59,3.6,4.96,5.73,.26,1.51-2.81,3.57-4.34,5.43-.69,.84-1.65,1.75-1.77,2.71-.27,2.14,0,4.34-.11,6.51-.15,2.77,.03,4.76,3.47,5.9,3.98,1.32,4.32,5.76,.99,8-.98,.66-2.15,1.03-3.35,1.47-.55,.2-.92,.73-.92,1.32v9.85c0,.36,.13,.71,.38,.97,2.67,2.81,5.83,4.91,5.62,6.59-.31,2.49-3.24,4.65-5.12,6.95-.06,.07-.12,.15-.16,.24-.89,1.54-.85,3.66-.9,5.77-.08,3.4-.42,6.37,4.13,7.95,3.66,1.27,3.34,6.65-.49,7.94-3.68,1.24-3.7,3.5-3.64,6.35,.05,2.48,.85,4.25,.85,6.73,.31-.05-.21,.61,.1,.55,1.87,2.15,5.21,4.31,5.2,6.45,0,2.15-3.16,4.29-5.03,6.43-.08,.09-.15,.19-.2,.29-.91,1.68-.87,3.93-.92,6.17-.08,3.23-.42,6.05,3.92,7.55,3.73,1.29,3.68,6.78-.07,7.95-4.25,1.33-3.95,3.96-3.85,7.09,.07,2.32,.03,3.12,.02,5.26,0,.16,.04,.34,.17,.44,.28,.23,.56,1.26,.84,1.1,1.86,2.16,5.21,4.34,5.17,6.46-.04,2.09-3.11,4.13-5.83,7.09-.23,.25-.36,.57-.36,.9-.04,1.75-.23,4.72,.13,7.62,.17,1.43,1.61,2.74,2.6,4.02,1.24,1.61,3.64,3.13,3.63,4.67,0,1.56-2.4,3.07-3.65,4.68-.98,1.25-2.22,2.51-2.6,3.95-.45,1.75,0,3.7-.13,5.56-.19,2.78,.07,4.92,3.44,5.92,1.35,.4,3.08,2.75,2.96,4.07-.14,1.6-1.92,3.17-3.24,4.51-.47,.47-1.19,.69-1.93,.91-.59,.18-1,.73-1,1.34v11.25c.31-.22,.63,.38,.94,.16,1.82,2.01,5.16,4.1,5.07,6.03-.1,2.25-3.2,4.36-5,6.53-.25-.17-.51,.56-.76,.87-.19,.24-.28,.54-.28,.84v8.61c0,.37,.14,.73,.41,.99,2.52,2.52,5.13,4.16,5.79,6.37,.98,3.32-2.39,4.42-5.02,5.56-.69,.3-1.2,1.65-1.28,2.56-.19,2.16,.07,4.35-.1,6.51-.23,2.9,.19,4.93,3.6,5.86,1.3,.35,2.84,2.73,2.83,4.18,0,1.46-1.63,3.1-2.88,4.3-.55,.52-1.4,.72-2.25,.93-.63,.15-1.07,.72-1.07,1.37v7.64c0,.36,.13,.7,.37,.96,2.65,2.83,5.72,4.86,5.6,6.69-.14,2.18-3,4.18-5.41,6.88-.23,.26-.35,.59-.35,.93v11.86c0,.78,.63,1.4,1.4,1.4H285.13c.61,0,1.15-.4,1.34-.98,.46-1.45,.87-2.78,1.35-4.08,1.82-4.9,5.98-8.62,10.75-10.01,.05,.01,.1,.03,.16,.03l6.82-.61s.02,0,.04,0c5.99,.37,12.37,4.53,13.71,10.55,1.18,5.29,3.97,5.44,8.13,5.43,66.05-.07,132.09-.04,198.14-.04,83.76,0,167.53,0,251.3,0,69.16,0,138.32,0,207.48-.01,1.65,0,3.3-.15,5.04-.26,.54-.04,.97-.48,.97-1.03v-13.71c0-.37-.2-.71-.52-.89-2.38-1.36-4.6-3.11-4.99-5.2-.25-1.37,2.59-3.54,4.35-4.99ZM297.96,49.16c0-.78,.63-1.4,1.4-1.4,.19,0,.38-.04,.55-.11h4.77c.14,.07,.28,.11,.45,.11,.57,0,1.03,.46,1.03,1.03v9.84c0,.57-.46,1.03-1.03,1.03-.13,0-.25,.03-.37,.07h-4.96c-.14-.04-.28-.07-.43-.07-.78,0-1.4-.63-1.4-1.4v-9.09Zm0,30.57c0-.66,.46-1.21,1.07-1.36,.03,0,.05,.02,.08,.02h6.03c.05,0,.09-.02,.14-.03,.49,.08,.87,.48,.87,1v9.84c0,.57-.46,1.03-1.03,1.03-.05,0-.1,.02-.15,.03h-5.33c-.09-.02-.19-.03-.29-.03-.78,0-1.4-.63-1.4-1.4v-9.09Zm1.3,182h5.88s.01,0,.02,0c.55,.02,.99,.47,.99,1.02v9.84c0,.57-.46,1.03-1.03,1.03,0,0,0,0,0,0h-5.76s0,0,0,0c-.78,0-1.4-.63-1.4-1.4v-9.09c0-.74,.57-1.34,1.3-1.39Zm.1,30.56s.09,0,.13-.01h5.56s.04,.01,.07,.01c.57,0,1.03,.46,1.03,1.03v9.84c0,.57-.46,1.03-1.03,1.03-.09,0-.17,.03-.26,.05h-5.15c-.11-.03-.23-.05-.36-.05-.78,0-1.4-.63-1.4-1.4v-9.09c0-.78,.63-1.4,1.4-1.4Zm-.29,30.6s.03,0,.04,0h6.03s.06-.01,.08-.02c.52,.05,.93,.48,.93,1.01v9.84c0,.49-.34,.87-.8,.98h-5.84c-.07,0-.14,.02-.2,.04-.75-.03-1.35-.64-1.35-1.4v-9.09c0-.68,.48-1.24,1.12-1.37Zm7.09-121.2l-.02,9.78c0,.57-.46,1.03-1.03,1.03s-1.03,.46-1.03,1.03v16.61c0,.57,.5-1.31,1.06-1.31l1.62-.21c.57,0-.63,3.02-.63,3.58v9.84c0,.57-.46,1.03-1.03,1.03-.04,0-.08,.02-.12,.02h-5.4c-.08-.01-.16-.02-.24-.02-.78,0-1.4-.63-1.4-1.4v-9.09c0-.78-.74-3.53,.04-3.53l1.71-.43c.78,0,1.07,1.93,1.07,1.15v-15.86c0-.78-.63-1.4-1.4-1.4s-1.4-.63-1.4-1.4v-9.09c0-.78-1.58-3.2-.8-3.2l1.6-.87c.78,0,1.51,1.13,1.51,.35l.5-14.96c0-.78-.63-1.4-1.4-1.4s-1.4-.63-1.4-1.4v-9.09c0-.78-1.38-4.7-.61-4.7l1.32-.33c.78,0,2.1,1.47,2.1,.69v-13.55c0-.78-.73,0-1.51,0l-1.07-.16c-.78,0-.24-2.65-.24-3.42v-9.09c0-.78,.63-1.4,1.4-1.4s1.4-.63,1.4-1.4v-5.66c0-.78-.63-1.4-1.4-1.4s-1.58-10.86-1.58-11.63l.18-9.06c0-.72,.54-1.31,1.24-1.39h5.94s.02,0,.03,0c.54,.03,.98,.47,.98,1.02v20.04c0,.57-.46,1.03-1.03,1.03s-1.03,.46-1.03,1.03v6.42c0,.57,.46,1.03,1.03,1.03s1.03,.46,1.03,1.03v9.84c0,.57,.46,1.53-.11,1.53l.34,1.21c-.57,0-2.29,.63-2.29,1.2v12.82c0,.57,2.31,.03,2.88,.03l.3,1.95c.57,0-1.12,1.42-1.12,1.99v9.84c0,.57-.46,1.03-1.03,1.03s-1.03,.46-1.03,1.03l1.27,14.85c0,.57,.75,1.21,1.32,1.21l.83,1.48c.57,0-1.35,.62-1.35,1.19Z"/>
  <path d="M940.73,18.31H376.51c0-.33,0-.66,0-.99H940.73c0,.33,0,.66,0,.99Z" style="fill: #ffc828; stroke: #ffc828; stroke-miterlimit: 10;"/>
  <path d="M940.73,347.63H376.51c0-.33,0-.66,0-.99H940.73c0,.33,0,.66,0,.99Z" style="fill: #ffc828; stroke: #ffc828; stroke-miterlimit: 10;"/>
  <g>
    <path d="M77.41,253.79c-10.97,0-21.95,.07-32.92-.09-1.55-.02-3.07-1.18-4.61-1.81,1.58-.57,3.15-1.63,4.74-1.64,22.11-.11,44.23-.11,66.34,0,1.43,0,2.85,1.04,4.28,1.59-1.47,.65-2.93,1.84-4.41,1.86-11.14,.16-22.28,.09-33.41,.09Z" style="fill: #ffc828;"/>
    <path d="M77.73,201.81c-11.13,0-22.27,.06-33.4-.07-1.48-.02-2.94-1.04-4.4-1.6,1.36-.62,2.72-1.79,4.09-1.79,22.43-.1,44.86-.09,67.29,.02,1.3,0,2.58,1,3.88,1.54-1.35,.6-2.7,1.71-4.06,1.73-11.13,.14-22.26,.08-33.4,.08,0,.04,0,.07,0,.11Z" style="fill: #ffc828;"/>
    <path d="M77.92,158.76c11.16,0,22.31-.05,33.46,.07,1.28,.01,2.55,.98,3.82,1.5-1.31,.64-2.62,1.83-3.94,1.84-22.47,.11-44.95,.11-67.42,.01-1.29,0-2.58-.99-3.87-1.51,1.33-.63,2.65-1.78,4-1.8,11.32-.15,22.64-.08,33.96-.08v-.02Z" style="fill: #ffc828;"/>
    <path d="M39.43,148.05c1.33-.61,2.65-1.73,3.99-1.74,22.82-.11,45.63-.1,68.45,0,1.12,0,2.23,1.01,3.34,1.55-1,.62-1.99,1.77-2.99,1.78-23.63,.06-47.26,0-70.9-.05-.29,0-.59-.2-.88-.31-.34-.41-.67-.81-1.01-1.22Z" style="fill: #ffc828;"/>
    <path d="M77.93,241.22c-11.31,0-22.62,.06-33.92-.08-1.35-.02-2.69-1.13-4.03-1.74,1.28-.53,2.57-1.53,3.86-1.53,22.45-.1,44.91-.11,67.36,0,1.34,0,2.66,1.16,4,1.78-1.44,.53-2.87,1.5-4.31,1.51-10.98,.13-21.96,.07-32.94,.07h0Z" style="fill: #ffc828;"/>
    <path d="M77.41,226.32c-11.15,0-22.3,.06-33.45-.09-1.36-.02-2.69-1.14-4.04-1.75,1.32-.53,2.64-1.51,3.96-1.51,22.63-.1,45.25-.1,67.88,0,1.16,0,2.31,1.17,3.47,1.79-1.13,.52-2.25,1.48-3.39,1.49-11.48,.11-22.95,.07-34.43,.06Z" style="fill: #ffc828;"/>
    <path d="M77.42,218.15c11.14,0,22.29-.06,33.43,.07,1.45,.02,2.88,.97,4.33,1.49-1.5,.63-2.99,1.8-4.5,1.81-21.96,.12-43.92,.12-65.88,.02-1.63,0-3.24-1.02-4.87-1.57,1.68-.6,3.35-1.7,5.04-1.73,10.81-.16,21.63-.08,32.44-.08Z" style="fill: #ffc828;"/>
    <path d="M77.2,181.91c-10.97,0-21.93,.06-32.9-.06-1.47-.02-2.92-.92-4.38-1.41,1.36-.66,2.72-1.9,4.08-1.91,22.42-.12,44.84-.11,67.27-.01,1.3,0,2.59,1.03,3.89,1.58-1.36,.6-2.71,1.71-4.08,1.73-11.29,.14-22.58,.08-33.88,.08Z" style="fill: #ffc828;"/>
    <path d="M77.43,174.69c-10.98,0-21.97,.07-32.95-.09-1.53-.02-3.03-1.2-4.54-1.84,1.44-.53,2.88-1.5,4.33-1.51,22.13-.1,44.26-.11,66.38,0,1.51,0,3.02,1.16,4.53,1.77-1.6,.56-3.19,1.58-4.81,1.6-10.98,.14-21.96,.07-32.95,.07Z" style="fill: #ffc828;"/>
    <path d="M77.96,101.77c10.96,0,21.93-.06,32.89,.07,1.46,.02,2.89,1.05,4.34,1.61-1.35,.58-2.69,1.66-4.05,1.67-22.42,.11-44.84,.1-67.26,.02-1.31,0-2.62-.94-3.92-1.44,1.37-.64,2.74-1.8,4.12-1.82,11.29-.15,22.58-.08,33.87-.08v-.03Z" style="fill: #ffc828;"/>
    <path d="M77.4,216.69c-10.98,0-21.96,.08-32.93-.09-1.52-.02-3.01-1.27-4.51-1.94,1.54-.46,3.08-1.31,4.62-1.31,21.96-.09,43.91-.07,65.87-.07,.49,0,1.08-.13,1.46,.04,1.12,.5,2.16,1.12,3.23,1.7-1.11,.56-2.2,1.59-3.32,1.6-11.47,.12-22.94,.07-34.41,.08Z" style="fill: #ffc828;"/>
    <path d="M77.59,196.71c-11.13,0-22.26,.06-33.39-.07-1.42-.02-2.82-1.04-4.22-1.6,1.41-.58,2.81-1.65,4.22-1.65,22.26-.11,44.52-.11,66.78,0,1.4,0,2.8,1.1,4.2,1.69-1.4,.55-2.79,1.57-4.2,1.59-11.13,.13-22.26,.07-33.39,.07v-.02Z" style="fill: #ffc828;"/>
    <path d="M77.94,111.82c10.99,0,21.97-.05,32.96,.07,1.45,.02,2.88,.98,4.31,1.5-1.36,.62-2.72,1.78-4.08,1.79-22.46,.11-44.93,.1-67.4,0-1.28,0-2.54-1-3.82-1.54,1.36-.61,2.71-1.73,4.08-1.75,11.31-.14,22.63-.08,33.94-.08Z" style="fill: #ffc828;"/>
    <path d="M78.05,141.48c10.83,0,21.66-.07,32.49,.08,1.56,.02,3.09,1.11,4.64,1.7-1.44,.56-2.88,1.6-4.33,1.6-22.15,.1-44.3,.1-66.45-.02-1.4,0-2.79-1.1-4.19-1.69,1.46-.58,2.9-1.66,4.37-1.68,11.15-.14,22.31-.08,33.47-.08v.08Z" style="fill: #ffc828;"/>
    <path d="M76.91,122.81c-10.8,0-21.6,.08-32.4-.09-1.54-.02-3.05-1.21-4.57-1.85,1.47-.56,2.93-1.6,4.4-1.61,22.09-.11,44.19-.12,66.28,0,1.52,0,3.03,1.22,4.54,1.87-1.62,.56-3.23,1.59-4.86,1.61-11.13,.14-22.26,.07-33.38,.07Z" style="fill: #ffc828;"/>
    <path d="M77.35,137.53c-11.14,0-22.28,.05-33.41-.07-1.33-.01-2.64-.98-3.96-1.51,1.22-.62,2.43-1.77,3.65-1.77,22.61-.11,45.21-.12,67.82-.02,1.24,0,2.47,1.12,3.7,1.72-1.29,.53-2.58,1.5-3.88,1.51-11.3,.12-22.61,.07-33.91,.07,0,.02,0,.05,0,.07Z" style="fill: #ffc828;"/>
    <path d="M113.93,255.86H41.69c0-.21,0-.42,0-.63H114l-.08,.63Z" style="fill: #ffc828;"/>
    <path d="M41.71,99.55H113.37c0,.21,0,.42,0,.64H41.79c-.03-.21-.05-.42-.08-.64Z" style="fill: #ffc828;"/>
    <path d="M41.88,107.08H113.43c0,.23,0,.47,0,.7H41.88c0-.23,0-.47,0-.7Z" style="fill: #ffc828;"/>
    <path d="M42.02,116.8H112.95v.44H42.1l-.07-.44Z" style="fill: #ffc828;"/>
    <path d="M112.83,206.57H41.99c0-.18,0-.36,0-.54H112.93c-.03,.18-.07,.36-.1,.54Z" style="fill: #ffc828;"/>
    <path d="M113.3,204.21H41.96c0-.17,0-.34,0-.51H113.29c0,.17,0,.34,0,.51Z" style="fill: #ffc828;"/>
    <path d="M42.01,166.09H112.91v.51H42.11c-.03-.17-.07-.34-.1-.51Z" style="fill: #ffc828;"/>
    <path d="M113.45,164.19H41.88c0-.14,0-.28,0-.42H113.44c0,.14,0,.28,0,.42Z" style="fill: #ffc828;"/>
    <path d="M42.88,154.09H112.77v.56H42.82l.06-.56Z" style="fill: #ffc828;"/>
    <path d="M113.22,140.15H42.32c0-.23,0-.46,0-.69H113.17c.02,.23,.03,.46,.05,.69Z" style="fill: #ffc828;"/>
    <path d="M112.65,233.89H41.79c0-.21,0-.42,0-.63H112.77c-.04,.21-.08,.42-.12,.63Z" style="fill: #ffc828;"/>
    <path d="M113.6,184.35H42.88c0-.24,0-.47,0-.71H113.61c0,.24,0,.47,0,.71Z" style="fill: #ffc828;"/>
    <path d="M46.74,186.42H112.94c0,.15,0,.31,0,.46H46.74c0-.15,0-.31,0-.46Z" style="fill: #ffc828;"/>
    <path d="M41.8,156.76H114.01c0,.18,0,.35,0,.53H41.8c0-.18,0-.35,0-.53Z" style="fill: #ffc828;"/>
    <path d="M114,176.86H41.57c0-.18,0-.35,0-.53H113.89c.04,.18,.07,.35,.11,.53Z" style="fill: #ffc828;"/>
    <path d="M113.4,132.19H42.24c0-.12,0-.24,0-.35H113.39c0,.12,0,.24,0,.35Z" style="fill: #ffc828;"/>
    <path d="M114.07,127.42H41.71v-.5H114.07v.5Z" style="fill: #ffc828;"/>
    <path d="M41.87,124.45H112.83c0,.19,0,.38,0,.57H41.75c.04-.19,.08-.38,.13-.57Z" style="fill: #ffc828;"/>
    <path d="M112.94,246.3H43.46c0-.14,0-.28,0-.43H113.03c-.03,.14-.06,.28-.09,.43Z" style="fill: #ffc828;"/>
    <path d="M41.76,235.67H113.92c0,.17,0,.34,0,.51H41.76c0-.17,0-.34,0-.51Z" style="fill: #ffc828;"/>
    <path d="M42.28,191.01H113.01c0,.14,0,.28,0,.43H42.09l.19-.43Z" style="fill: #ffc828;"/>
    <path d="M42.37,242.84H112.72c0,.15,0,.3,0,.45H42.22c.05-.15,.1-.3,.15-.45Z" style="fill: #ffc828;"/>
    <path d="M42.32,210.64H112.72c0,.12,0,.25,0,.37H42.31c0-.12,0-.25,0-.37Z" style="fill: #ffc828;"/>
  </g>
  <line x1="478.58" y1="18.31" x2="478.58" y2="347.63" style="fill: none; stroke: #ffc828; stroke-miterlimit: 10; stroke-width: 2px;"/>
  <path d="M149.06,235.79v-95.91h-14.1v-22.8h51.94v22.8h-14.1v95.91h-23.74Z" style="fill: #fff;"/>
  <path d="M192.43,235.79V117.07h22.93v118.71h-22.93Z" style="fill: #fff;"/>
  <path d="M252.46,236.86c-8.59,0-15.5-2.67-20.74-8.03-5.24-5.35-7.86-12.84-7.86-22.46v-54.77c0-11.51,2.28-20.32,6.85-26.44,4.56-6.12,11.99-9.17,22.29-9.17,5.62,0,10.62,1.03,15.01,3.1,4.38,2.07,7.83,5.16,10.35,9.27,2.52,4.12,3.78,9.3,3.78,15.55v20.5h-23.61v-17.54c0-3.55-.45-5.95-1.35-7.18-.9-1.24-2.29-1.86-4.18-1.86-2.2,0-3.69,.8-4.45,2.4-.77,1.6-1.15,3.72-1.15,6.37v59.42c0,3.28,.48,5.6,1.45,6.95,.97,1.35,2.35,2.02,4.15,2.02,2.02,0,3.45-.83,4.28-2.5,.83-1.66,1.25-3.82,1.25-6.47v-21.38h23.88v22.46c0,10.43-2.63,18-7.89,22.7-5.26,4.7-12.61,7.05-22.06,7.05Z" style="fill: #fff;"/>
  <path d="M355.52,235.79V117.07h47.49v22.93h-23.34v23.14h22.39v22.33h-22.39v27.18h24.89v23.14h-49.04Z" style="fill: #fff;"/>
  <path d="M422.57,235.79v-95.91h-14.1v-22.8h51.94v22.8h-14.1v95.91h-23.74Z" style="fill: #fff;"/>
  <path d="M499.4,235.79V117.07h47.49v23.14h-23.61v18.89h22.39v22.87h-22.39v53.83h-23.88Z" style="fill: #fff;"/>
  <path d="M550.12,235.79l11.47-118.71h40.27l11.26,118.71h-22.46l-1.69-19.16h-14.3l-1.48,19.16h-23.07Zm26.24-38.11h10.79l-5.19-60.37h-1.08l-4.52,60.37Z" style="fill: #fff;"/>
  <path d="M648.06,236.86c-8.59,0-15.5-2.67-20.74-8.03-5.24-5.35-7.86-12.84-7.86-22.46v-54.77c0-11.51,2.28-20.32,6.85-26.44,4.56-6.12,11.99-9.17,22.29-9.17,5.62,0,10.62,1.03,15.01,3.1s7.84,5.16,10.35,9.27c2.52,4.12,3.78,9.3,3.78,15.55v20.5h-23.61v-17.54c0-3.55-.45-5.95-1.35-7.18-.9-1.24-2.29-1.86-4.18-1.86-2.2,0-3.69,.8-4.45,2.4-.77,1.6-1.15,3.72-1.15,6.37v59.42c0,3.28,.48,5.6,1.45,6.95,.97,1.35,2.35,2.02,4.15,2.02,2.02,0,3.45-.83,4.28-2.5,.83-1.66,1.25-3.82,1.25-6.47v-21.38h23.88v22.46c0,10.43-2.63,18-7.89,22.7-5.26,4.7-12.61,7.05-22.06,7.05Z" style="fill: #fff;"/>
  <path d="M696.08,235.79v-95.91h-14.1v-22.8h51.94v22.8h-14.1v95.91h-23.74Z" style="fill: #fff;"/>
  <path d="M768.86,236.86c-9.49,0-16.74-2.87-21.75-8.6-5.02-5.73-7.52-14.02-7.52-24.86v-56.39c0-10.16,2.48-17.87,7.45-23.14,4.97-5.26,12.24-7.89,21.82-7.89s16.85,2.63,21.82,7.89c4.97,5.26,7.45,12.97,7.45,23.14v56.39c0,10.84-2.51,19.12-7.52,24.86-5.01,5.73-12.27,8.6-21.75,8.6Zm.2-21.85c3.6,0,5.4-3.49,5.4-10.46v-57.94c0-5.85-1.75-8.77-5.26-8.77-3.96,0-5.93,2.99-5.93,8.97v57.87c0,3.69,.45,6.33,1.35,7.92,.9,1.6,2.38,2.4,4.45,2.4Z" style="fill: #fff;"/>
  <path d="M807.71,235.79V117.07h36.42c6.07,0,10.66,1.38,13.76,4.15,3.1,2.77,5.18,6.63,6.24,11.6,1.06,4.97,1.58,10.8,1.58,17.5s-.82,11.65-2.46,15.51c-1.64,3.87-4.73,6.54-9.27,8.03,3.73,.77,6.35,2.62,7.86,5.56,1.51,2.95,2.26,6.76,2.26,11.43v44.92h-23.41v-46.47c0-3.46-.71-5.61-2.13-6.44-1.42-.83-3.7-1.25-6.85-1.25v54.16h-24.01Zm24.15-74.73h5.73c3.28,0,4.92-3.57,4.92-10.72,0-4.63-.36-7.67-1.08-9.11-.72-1.44-2.07-2.16-4.05-2.16h-5.53v21.99Z" style="fill: #fff;"/>
  <path d="M887.91,235.79v-39.05l-18.95-79.66h23.54l6.61,40.2,6.61-40.2h23.47l-18.89,79.66v39.05h-22.39Z" style="fill: #fff;"/>
  <path d="M335.42,171.44l13.29-54.36h-23.88l-11.06,47.55v-47.55h-7.58l-.06,4.71c0,.43-.36,.77-.78,.76l-6.58-.09c-.43,0-.77-.36-.76-.78l.06-4.6h-7.77v118.71h7.63l.06-4.78c0-.43,.36-.77,.78-.76l6.67,.09c.43,0,.77,.36,.76,.78l-.06,4.67h7.77v-57.47l12.95,57.47h24.62l-16.05-64.35Zm-29.38,40.04c0,.43-.36,.77-.78,.76l-6.3-.08c-.43,0-.77-.36-.76-.78l.15-11.6c0-.43,.36-.77,.78-.76l6.3,.08c.43,0,.77,.36,.76,.78l-.15,11.6Zm0-31.68c0,.43-.36,.77-.78,.76l-6.3-.08c-.43,0-.77-.36-.76-.78l.15-11.61c0-.43,.36-.77,.78-.76l6.3,.08c.43,0,.77,.36,.76,.78l-.15,11.61Zm0-27.49c0,.43-.36,.77-.78,.76l-6.3-.08c-.43,0-.77-.36-.76-.78l.15-11.6c0-.43,.36-.77,.78-.76l6.3,.08c.43,0,.77,.36,.76,.78l-.15,11.6Z" style="fill: #ffc828;"/>
</svg>